<?xml version="1.0" encoding="UTF-8"?>
<svg id="Layer_1" xmlns="http://www.w3.org/2000/svg" version="1.1" viewBox="0 0 1000 1000">
  <!-- Generator: Adobe Illustrator 29.5.1, SVG Export Plug-In . SVG Version: 2.1.0 Build 141)  -->
  <defs>
    <style>
      .st0 {
        fill: #afbcc4;
      }
    </style>
  </defs>
  <g id="Layer_1-2">
    <path class="st0" d="M448.2,52c13.7,3.4,27.1,8.8,38.9,16.6,35.9,23.7,35.6,68,92.1,55.9,38.8-8.3,51.4-51.1,85.1-67.9,8.1-4,27.9-3.8,29.8,6.9,5.5,30.1-30.7,78.8-59,86.9-25,7.2-43-.6-55.7,29.3-5.2,12.3-8.5,22.4,7.5,26.9,30,8.4,72.1-1.7,76.1,43.9,3.7,42.4-37.7,120.9-61.2,156.5-49.2,74.6-119.4,134.6-154.8,218.2-38.3,90.3-34.6,190.9-87,277-13.6,22.4-31.9,39.2-57.8,45.7h-23c-17.8-5.7-35.2-18.6-42-36.5-7.7-20.2-5.8-59.9-4-82,9.4-112.4,112.2-221.9,193-293,63.8-56.1,170.5-119.1,156.9-218.9-5.1-37.7-51.4-17.3-73.2-7.5-44.9,20.1-86,49.8-129.6,72.4-15.6,8.1-35.7,19-53.5,18.5-63-1.8-87.1-36.7-84.6-97.5,3.6-85.6,78.5-221.2,164.3-247.7l14.8-3.7h27ZM419,168.3c-34,2-66.2,15.5-84.6,45.4-27.3,44.4,2.3,93.4,51.7,56.7,6.2-4.6,11.5-10.6,17.8-15.2,35.9-26.9,77.4-37.6,117-56,8.3-3.9,27.9-10.6,12.4-18.7-22.2-11.7-88.4-13.7-114.3-12.2h0Z"/>
  </g>
</svg>