<?xml version="1.0" encoding="UTF-8"?>
<svg id="Layer_2" data-name="Layer 2" xmlns="http://www.w3.org/2000/svg" viewBox="0 0 463.14 896">
  <defs>
    <style>
      .cls-1 {
        fill: #afbcc4;
      }
    </style>
  </defs>
  <g id="Layer_1-2" data-name="Layer 1">
    <path class="cls-1" d="M216.63,0c13.7,3.44,27.08,8.79,38.91,16.59,35.87,23.66,35.6,68.03,92.1,55.92,38.81-8.32,51.4-51.11,85.1-67.9,8.11-4.04,27.88-3.83,29.84,6.94,5.47,30.06-30.69,78.78-58.98,86.92-25.02,7.2-43.05-.56-55.69,29.31-5.21,12.31-8.45,22.44,7.51,26.92,30.03,8.43,72.08-1.72,76.07,43.93,3.71,42.35-37.74,120.9-61.24,156.5-49.24,74.56-119.37,134.59-154.8,218.2-38.29,90.35-34.58,190.85-87.02,276.98-13.62,22.37-31.86,39.21-57.81,45.69h-23c-17.81-5.69-35.19-18.57-42.02-36.48-7.71-20.21-5.81-59.9-3.97-82.01,9.38-112.44,112.16-221.86,192.98-293.02,63.75-56.13,170.48-119.05,156.89-218.86-5.13-37.69-51.39-17.29-73.24-7.48-44.88,20.14-86.03,49.83-129.62,72.38-15.65,8.1-35.69,18.98-53.51,18.47-63.01-1.8-87.14-36.69-84.56-97.54C14.22,165.86,89.06,30.24,174.85,3.72l14.78-3.72h27ZM187.43,116.29c-34.03,2-66.2,15.46-84.6,45.4-27.3,44.42,2.33,93.35,51.72,56.72,6.25-4.63,11.54-10.59,17.76-15.24,35.92-26.91,77.4-37.56,117.01-55.99,8.31-3.87,27.91-10.55,12.36-18.72-22.22-11.67-88.35-13.69-114.25-12.17Z"/>
  </g>
</svg>