<?xml version="1.0" encoding="UTF-8"?>
<svg id="Layer_1" data-name="Layer 1" xmlns="http://www.w3.org/2000/svg" viewBox="0 0 703.84 567.96">
  <defs>
    <style>
      .cls-1 {
        fill: #afbcc4;
      }
    </style>
  </defs>
  <path class="cls-1" d="M379.29,151.67c-16.35-21.63-44.54-61.22-48.25-88.24-1.62-11.75.52-26.02,4.62-36.44,3.35-8.51,14.21-21.01,22.72-24.31,35.32-13.68,65.03,28.21,84.84,50.92,14.94,17.12,29.74,32.83,46.7,48.01,44.24,39.58,93.59,76.94,145.34,105.65,25.74,14.28,68.83,26.63,68.57,63.58,0,.55.02,1.11,0,1.66-.38,9.63-3.94,18.48-9.02,26.48-.67,1.06-.44,1.05-1.64,2.48-2.14,2.55-5.45,5.09-7.79,7.47-.88.89-2.8,2.79-2.86,4.11-.24.11-.62-.11-.82,0-1.2.69-8.28,6.22-9,7.08s-.66,1.01-.83,2.02c-7.29,2.66-15.64,6.26-22.13,10.76-1.94,1.35-1.52,1.57-1.64,1.66-.9.66-1.35,1.44-1.64,1.66-2.39,1.78-7.53,2.58-10.39,3.99-4.92,2.43-8.87,6.8-13.47,9.57-2.19,1.32-6.19,1.6-7.28,3.82-2.79-.29-6.04,2.52-6.56,4.97h-.82c-5.08,1.89-9.77,5.57-13.93,9.1-1.47,1.25-2.52,1.64-4.1,3.31-2.31.8-3.73.88-4.1,3.31-6.39,2.88-6.64,5.11-11.47,9.1-7.31,6.05-17.19,14.77-24.59,19.03-2.42,1.4-3.05,2.05-4.92,3.31-2.65,1.79-4.03,2.74-6.56,4.97-1.59,1.4-1.44-.36-3.28,3.31-.26.53-.64,1.12-.82,1.66-6.05,1.16-9.03,7.4-13.11,11.59-1.85,1.9-6.28,4.27-7.43,6.17-3.07,5.09-2.19,2.99-6.11,7.06-13.22,13.73-23.31,32.74-34.79,47.41-3.9,4.98-8.7,9.56-12.29,14.88-4.78,7.08-9.09,14.3-14.78,21.32-4.03,4.96-10.05,12.29-14.75,16.55-.62.56-1.21,1.3-1.64,1.66-.3.25-.53.6-.82.83-1.38,1.1-4,2.83-5.74,4.14-3.87,2.91-9.71,6.68-13.93,9.1-1.9,1.09-3.77,2.36-5.74,3.31-6.71,3.23-12.58,4.95-19.61,7.09-6.66,2.03-4.94.68-11.54.36-4.39-.21-8.78.79-12.29.83-2.18.03-4.37-.03-6.56,0,.49-2.56-1.25-1.41-2.73-1.75-5.93-1.37-11.54-2.83-16.94-5.69-10.16-5.38-21.21-16.86-26.23-27.31-.85-1.77-2.57-6.33-3.28-8.28-.28-.78-.54-1.66-.82-2.48-.5-1.45,0-3.74-1.64-4.97-.02-.27.03-.56,0-.83l-.82-1.66c-1.34-14.21.51-21.85,2.46-35.59,2.34-5.18,4.17-10.54,6.56-15.72,3.97-8.64,18.99-29.44,26.23-33.93l1.64-.83c1.55-1.01,2.3-1.7,3.28-3.31,2.32.02,2.9-2.05,4.1-3.31,8.7-9.14,18.06-13.62,27.05-21.52,1.91-1.68,3.34-3.82,4.92-5.79.74-.2,1.07-.5,1.64-.83,1.48-.84,1.55-1.4,2.46-2.48.4-.47,1.01-.86,1.64-1.66,2.35.12,2.94-2.28,4.1-3.31.29-.26.54-.56.82-.83,1.22-1.15,2.39-2.44,3.28-3.31,7.1-6.97,23.68-18.32,27.63-26.31,4.23-8.56,6.57-21.6-1.81-28.31-3.71-2.97-12.83-5.49-17.62-6.62-1.63-.38-3.2-.99-4.92-.83-.87-.98-.89-.55-1.64-.83-4.32-1.57-12.66-1.22-17.21,0-4.04-.27-7.62.77-11.47,1.66-10.47,2.4-20.47,7.23-31.14,9.1-4.3.76-11.43,2.03-15.57,2.48-2.38.26-5.72.1-8.2,0-4.78-.2-10.55-1.15-15.57-1.66-9.57-.97-18.97-2.24-28.68-3.31-.54-.06-1.65-.69-3.28-.83-22.94-2-34.76-.73-55.54,7.39-20.84,8.15-44.02,16.61-66.17,19.95-1.53.23-3.32-1.04-2.86,1.62-5.57.13-11.67.25-17.21,0-5.35-.24-10.29-1.03-15.57-1.66-1.07-.13-2.21.13-3.28,0-15.59-1.96-36.59-4.98-51.82-8.5-9.87-2.29-15.6-6.03-24.4-9.7-.48-.2-.89-.58-1.64-.83-.66-.22-2.03-.77-2.46-.83.07-2.04-1.37-2.35-2.46-3.31-3.18-2.79-4.7-3.04-7.38-6.62-.58-.78-1.15-1.65-1.64-2.48-.62-1.06-1.06-2.24-1.64-3.31-1.07-1.97-.94-2.1-2.46-4.14-.25-.34.63-2.23-1.64-1.66-.33-2.45-1.38-3.57-1.64-4.97-1.65-8.72-1.94-15.4-.73-24.32.78-5.74,5.36-10.81,7.28-16.23.43-.23.59-.65.82-.83,1.41-1.06,3.06-3.94,3.28-4.14,4.72-4.25,17.16-11.27,19.67-14.9,1.43.22,1.94-.18,1.64-1.66,12.93-3.99,23.16-9.33,37.39-11.49,37.7-5.71,69.64,7.27,106.44,4.86,17.48-1.14,34.43-7.42,50.41-14.06.79-.33,2.09.8,1.64-1.66,11.86-3.72,22.85-6.69,35.24-8.28,1.29-.16,2.56-.75,3.28-.83,1.07-.11,2.2.09,3.28,0,20.51-1.77,43.03-1.12,63.41,1.76,15.55,2.2,32.18,7.57,47.63,9,2.38.22,10.22.44,12.14-.03.6-.15.48-1.42,1.15-1.6,1.09-.29,2.52.11,3.72-.23,11.76-3.36,25.07-10.12,21.56-24.69-2.83-11.75-21.89-25.25-29.97-33.88l-.82-1.66c-.27-.29-.57-.55-.82-.83-1.68-1.88-3.96-5.83-6.03-7.98-.96-1-2.72-1.79-3.81-2.78Z"/>
</svg>