<?xml version="1.0" encoding="UTF-8"?>
<svg id="Layer_2" data-name="Layer 2" xmlns="http://www.w3.org/2000/svg" viewBox="0 0 20.35 18.62">
  <defs>
    <style>
      .cls-1 {
        fill: #afbcc4;
      }
    </style>
  </defs>
  <g id="Layer_1-2" data-name="Layer 1">
    <path class="cls-1" d="M19.88,1.39c2.76,1.77-7.29,11.34-10.52,12.45-.34.12-.72.03-.98-.22-1.78-1.64-6.19-6.14-2.03-5.66.23.03.45.14.61.31.54.57,1.77,1.74,2.37,2.31.19.18.48.17.66-.02,1.39-1.52,7.02-7.6,8.78-9.06.31-.26.76-.33,1.1-.11Z"/>
    <path class="cls-1" d="M17.97,14.78c-.26-2.21,1.31-4.77.04-6.16-.18-.2-.96-.25-1.06,0-.41.99-.51,3.1-.43,4.63.08,3.41.48,3.52-2.66,3.63-1.47.06-3.5.03-4.85.03h0c-2.06-.17-6.86.87-6.89-.93-.05-.28-.19-.84-.2-1.14.05-3.15.05-6.92-.06-10.19,0-3.01-.25-2.74,2.76-2.75,3.08.07,6.24-.05,9.31-.09,1.18.02,1.08-.07,1.77.02.14.02,1.25,0,1.39,0,0,0,.46-.05.61-.29C18.51.18,15.4-.17,11.77.07c-1.57.05-2.46.25-3.85.23C5.91.27,2.05-.25.9.87,0,1.76.54,2.83.39,4.51c.21,2.88-2.02,14.16,2.29,14.06,3.21.06,8.52.01,12.08.03,2.34.18,3.44-1.11,3.21-3.6v-.22Z"/>
  </g>
</svg>