<?xml version="1.0" encoding="UTF-8"?>
<svg id="Layer_1" data-name="Layer 1" xmlns="http://www.w3.org/2000/svg" viewBox="0 0 581.3 616.4">
  <defs>
    <style>
      .cls-1 {
        fill: #d2dade;
      }

      .cls-2 {
        fill: #d8dfe3;
      }

      .cls-3 {
        fill: #d3dce0;
      }

      .cls-4 {
        fill: #d3dade;
      }

      .cls-5 {
        fill: #d5dce0;
      }

      .cls-6 {
        fill: #d3dbdf;
      }

      .cls-7 {
        fill: #d6dde1;
      }

      .cls-8 {
        fill: #dbe2e5;
      }

      .cls-9 {
        fill: #d9e0e3;
      }

      .cls-10 {
        fill: #d5dde0;
      }

      .cls-11 {
        fill: #d4dbdf;
      }

      .cls-12 {
        fill: #afbcc4;
      }

      .cls-13 {
        fill: #d5dde1;
      }
    </style>
  </defs>
  <path class="cls-9" d="M413.3,0l-.5,2.01L412.31,0c.33,0,.67,0,1,0Z"/>
  <path class="cls-4" d="M448.27,210.79c3.87,1.4,2.2,1.93,3,3-1.71-.72-3.54-.74-3-3Z"/>
  <path class="cls-7" d="M220.49,303.7l2.99-1v2c-1.1-.29-2.41-.87-2.99-1Z"/>
  <path class="cls-8" d="M253.46,590.42h3s-1,3-1,3c-.32-.73-1.5-1.55-2-3Z"/>
  <path class="cls-13" d="M360.36,163.84c-.04.66.02,1.33,0,2l-2-.51v-1.48s2,0,2,0Z"/>
  <path class="cls-6" d="M139.57,229.78h2s-2,3-2,3c.1-.98-.11-2.02,0-3Z"/>
  <path class="cls-1" d="M250.46,464.55c0-.09-.71-.43-.7-1.22,0-.35.7-.6.7-.78l.99.51-.99,1.49Z"/>
  <path class="cls-10" d="M351.37,579.43c-.36,1.48-.97,1.89-1,2l-.99-1.99h1.99Z"/>
  <path class="cls-13" d="M374.34,115.89c-.08.08-.2,1.14-1,2l-1-1.99h2Z"/>
  <path class="cls-7" d="M248.47,359.65h2s0,2,0,2c-.04-.14-1.68-.59-2-2Z"/>
  <path class="cls-10" d="M348.37,588.43c.67.54.07.75,0,1l-2.01-.5,2.01-.5Z"/>
  <path class="cls-5" d="M264.45,605.41c1.74-.3,2.31.25,2,2-.91-.78-1.34-1.37-2-2Z"/>
  <path class="cls-13" d="M402.32,102.9c-.1.48-.53.93-1,1v-2s1,1,1,1Z"/>
  <path class="cls-2" d="M250.46,103.9l1,.99h-2c.05-.45.53-.88,1-.99Z"/>
  <path class="cls-2" d="M249.46,108.89l1,.99h-2c.1-.76.99-.92,1-.99Z"/>
  <path class="cls-13" d="M360.36,168.84c0,.33,0,.67,0,1l-2.01-.5,2.01-.5Z"/>
  <path class="cls-5" d="M435.28,304.7l1-2c-.13.09.5,1.55-1,2Z"/>
  <path class="cls-11" d="M176.54,305.7v-1.49s1-.51,1-.51c-.15.12.52,1.61-1,2Z"/>
  <path class="cls-5" d="M432.29,304.7c-.07.02-.29.95-1,1v-2s1,1,1,1Z"/>
  <path class="cls-7" d="M247.47,334.67h2s-1,1-1,1c0-.07-.89-.23-1-1Z"/>
  <path class="cls-3" d="M358.36,465.55c.01.33,0,.67,0,1l-2.01-.5,2.01-.5Z"/>
  <path class="cls-10" d="M355.36,562.45c-.3,1.14-1.04,1.08-2,1l2-1Z"/>
  <path class="cls-5" d="M280.43,616.4c-.74-.18-.93-.98-1-1l.99-1v2Z"/>
  <path class="cls-7" d="M243.97,316.69c.65.33.65.67,0,1v-1Z"/>
  <path class="cls-12" d="M63.43,84.25c29.82,13.45,55.79,38,77.2,63.11,18.48,21.67,35.26,41.69,53.3,63.54,24.76,29.99,51.61,64.17,82.07,89.8,2.73,2.3,5.26,6,7.99,7.99,14.17,10.3,25.68,2.29,37.77-6.17,28.53-19.97,46.2-49.39,68.95-74.41,9.08-9.98,19.44-19.23,28.64-29.8,25.06-28.81,44.83-63.75,72.43-89.41,19.63-18.26,46.15-37.74,70.47-14.53,11.02,10.52,17.84,35.94,18.92,51.01,1.61,22.42-14.66,57.23-27.12,75.79-11.81,17.58-27.84,34.78-41.21,52.65-11.91,15.91-22.02,34.13-33.33,50.59-19.79,28.81-43.24,52.77-62.97,80.89-8.76,12.48-14.72,26.35-22.77,39.17-4.77,7.6-12.09,15.56-16.84,23.15-.68,1.08-.18,3.14-.75,3.77-.34.38-1.86-.1-2.83.82-4.95,4.63-15.7,26.76-20.51,34.23-13.45,20.91-37.36,54.22-65.61,49.8-5.1-.8-4.63-2.58-7.37-4.57-14.68-10.7-23.6-21.18-34-35.48-2.26-3.11-11.7-19.59-12.63-20.41-.57-.51-2.08.18-2.71-.91-10.65-18.25-19.79-40.94-34.66-55.49-.43-.42-2.52-6.81-4.26-9.01-6.98-8.81-12.93-19.32-20.72-26.96-.72-.71-1.07-4.42-2.25-6.04-6.41-8.79-8.41-12.25-13.81-21.42-15.54-26.35-41.43-48.76-59.98-73.89-17.59-23.84-34.57-47.04-53.58-70.3-3.06-3.74-6.6-6.64-10.53-11.45C12.16,197.54-3.54,178.76.7,146.29c.24-1.85,1.88-1.32,2.06-2.11,1.13-5.12.45-3.98,2.31-8.55,10.35-25.51,10.94-32.95,35.93-47.75,4.26-2.52,2.57-1.02,7.06-1.97.79-.17.25-1.82,2.11-2.06,2.01-.26,11.88-.22,13.27.41Z"/>
</svg>