<svg width="1799" height="359" viewBox="0 0 1799 359" fill="none" xmlns="http://www.w3.org/2000/svg">
<path d="M419.365 358.812H144.861L176.344 328.116H450.45L419.365 358.812Z" fill="#00205B"/>
<path d="M284.951 281.242C288.416 292.329 291.264 303.384 293.304 311.94H192.935L224.42 281.242H284.951Z" fill="#00205B"/>
<path d="M466.83 311.94H300.164C302.175 303.55 305.15 292.642 309.231 281.242H497.917L466.83 311.94Z" fill="#00205B"/>
<path d="M263.022 234.368C266.851 239.563 270.395 245.289 273.552 251.602C275.591 255.682 277.541 260.249 279.384 265.066H61.6614L90.2754 234.368H263.022Z" fill="#00205B"/>
<path d="M514.297 265.066H315.727C317.806 260.459 320.074 255.926 322.545 251.602C326.153 245.289 330.053 239.563 334.159 234.368H545.384L514.297 265.066Z" fill="#00205B"/>
<path d="M188.823 187.494C206.325 191.668 229.115 200.308 248.524 218.192H105.354L133.968 187.494H188.823Z" fill="#00205B"/>
<path d="M592.804 187.54L561.764 218.192H349.321C369.203 200.308 391.187 191.668 407.79 187.494H592.844L592.804 187.54Z" fill="#00205B"/>
<path d="M242.104 140.62C219.248 160.318 193.987 168.18 177.463 171.318H0.0130313C-0.0435197 170.781 0.0813362 170.219 0.439549 169.735L0.687992 169.451L29.8836 140.62H242.104Z" fill="#00205B"/>
<path d="M457.827 171.318H413.388C395.84 168.181 369.408 160.318 346.992 140.62H486.441L457.827 171.318Z" fill="#00205B"/>
<path d="M276.931 93.7477C275.083 97.7264 273.091 101.636 270.947 105.389C266.913 112.448 262.512 118.774 257.868 124.444H46.2651L77.3492 93.7477H276.931Z" fill="#00205B"/>
<path d="M501.52 124.444H331.841C327.485 118.774 323.47 112.448 319.94 105.389C318.159 101.827 316.449 97.8936 314.816 93.7477H530.133L501.52 124.444Z" fill="#00205B"/>
<path d="M292.886 46.8739C290.775 55.4554 287.726 66.328 283.601 77.5717H93.7306L124.816 46.8739H292.886Z" fill="#00205B"/>
<path d="M367.646 77.1408L367.397 77.4237C367.361 77.4724 367.326 77.5214 367.294 77.5717H309.119C305.64 66.6526 302.743 55.6337 300.623 46.8739H398.689L367.646 77.1408Z" fill="#00205B"/>
<path d="M415.28 30.6978H296.977C296.774 29.7133 296.665 29.1813 296.665 29.1813C296.665 29.1813 296.576 29.7112 296.395 30.6978H141.198L172.283 0H446.765L415.28 30.6978Z" fill="#00205B"/>
<path d="M666.855 219.848C667.772 266.222 687.24 288.569 726.948 288.569C762.924 288.569 782.395 273.332 787.474 241.165L824.296 244.128C814.985 293.647 781.124 319.042 727.372 319.042C694.782 319.042 669.387 309.307 651.188 288.145C635.634 270.739 627.533 247.501 625.75 219.848H666.855Z" fill="#00205B"/>
<path d="M905.437 226.774C905.437 246.243 905.013 262.751 917.711 275.025C929.985 286.875 943.953 287.299 956.227 287.299C975.273 287.299 1010.83 282.642 1010.83 221.272V102.34H1048.92L1048.56 319.042H1010.46L1010.83 282.22C999.398 306.768 975.696 319.042 945.646 319.042C918.135 319.042 898.242 311.423 883.005 295.34C866.498 277.987 866.075 251.323 866.075 228.891V102.34H905.437V226.774Z" fill="#00205B"/>
<path d="M1173.11 14.8391C1182 14.8391 1191.73 16.1094 1196.39 16.9559L1195.54 50.8159C1188.77 49.5462 1179.88 48.6992 1175.23 48.6991C1160.84 48.6991 1154.06 51.2385 1154.06 65.2055V101.605H1197.24V133.348H1154.06V319.042H1116.39V133.348H1085.92V101.605H1116.39V64.3597C1116.39 30.0767 1133.75 14.8391 1173.11 14.8391Z" fill="#00205B"/>
<path d="M1236.92 219.848C1238.21 242.699 1243.6 260.921 1255.22 272.908C1265.38 283.489 1280.19 288.991 1301.35 288.991C1322.94 288.991 1338.18 282.643 1348.33 271.215C1358.81 259.293 1364.04 241.819 1365.35 219.848H1406.29C1401.64 279.764 1361.04 319.042 1301.35 319.042C1239.15 319.042 1200.23 281.848 1195.94 219.848H1236.92Z" fill="#00205B"/>
<path d="M1482.37 319.042H1444.28V22.7692H1482.37V319.042Z" fill="#00205B"/>
<path d="M1561.78 319.042H1523.69V107.419H1561.78V319.042Z" fill="#00205B"/>
<path d="M1629.62 219.848C1630.92 242.699 1636.3 260.921 1647.93 272.908C1658.08 283.489 1672.9 288.992 1694.06 288.992C1715.65 288.992 1730.88 282.643 1741.04 271.215C1751.52 259.293 1756.75 241.819 1758.06 219.848H1799C1794.35 279.764 1753.75 319.042 1694.06 319.042C1631.85 319.042 1592.94 281.848 1588.65 219.848H1629.62Z" fill="#00205B"/>
<path d="M726.948 97.2604C760.385 97.2604 792.128 111.652 809.482 139.163C822.179 159.478 828.952 189.529 827.259 219.579H667.216L698.113 188.682H788.319C787.896 176.831 784.087 161.594 776.893 151.013C765.888 134.93 750.227 128.158 727.372 128.158C703.67 128.158 685.894 137.046 677.429 151.013C669.923 163.107 667.349 178.077 667.275 188.231H626.586C629.57 165.011 638.053 144.652 652.035 129.005C670.658 107.843 696.475 97.2605 726.948 97.2604Z" fill="#00205B"/>
<path d="M1301.35 97.2604C1358.91 97.2606 1397.4 134.372 1405.26 187.495H1364.57C1362.46 169.546 1357.24 154.932 1347.91 144.664C1337.75 133.66 1322.94 127.312 1301.35 127.312C1280.62 127.312 1265.38 132.814 1255.22 143.395C1245.16 153.77 1239.77 168.818 1237.67 187.495H1197C1204.75 134.088 1243.01 97.2604 1301.35 97.2604Z" fill="#00205B"/>
<path d="M1694.06 97.2618C1751.61 97.2621 1790.11 134.372 1797.96 187.495H1757.27C1755.16 169.546 1749.95 154.932 1740.62 144.664C1730.46 133.66 1715.65 127.312 1694.06 127.312C1673.32 127.312 1658.08 132.814 1647.93 143.395C1637.87 153.77 1632.48 168.818 1630.37 187.495H1589.7C1597.45 134.089 1635.71 97.2618 1694.06 97.2618Z" fill="#00205B"/>
<path d="M1561.78 67.6339H1523.69V22.7692H1561.78V67.6339Z" fill="#00205B"/>
</svg>
