<?xml version="1.0" encoding="UTF-8"?>
<svg id="Layer_1" data-name="Layer 1" xmlns="http://www.w3.org/2000/svg" viewBox="0 0 599.79 682.02">
  <defs>
    <style>
      .cls-1 {
        fill: #d2dade;
      }

      .cls-2 {
        fill: #d8dfe3;
      }

      .cls-3 {
        fill: #d3dce0;
      }

      .cls-4 {
        fill: #d3dade;
      }

      .cls-5 {
        fill: #d5dce0;
      }

      .cls-6 {
        fill: #d3dbdf;
      }

      .cls-7 {
        fill: #d6dde1;
      }

      .cls-8 {
        fill: #dbe2e5;
      }

      .cls-9 {
        fill: #d9e0e3;
      }

      .cls-10 {
        fill: #d5dde0;
      }

      .cls-11 {
        fill: #d4dbdf;
      }

      .cls-12 {
        fill: #afbcc4;
      }

      .cls-13 {
        fill: #d5dde1;
      }
    </style>
  </defs>
  <path class="cls-9" d="M408.87,14.28l-.5,2.01-.5-2.01c.33,0,.67,0,1,0Z"/>
  <path class="cls-4" d="M443.83,225.07c3.87,1.4,2.2,1.93,3,3-1.71-.72-3.54-.74-3-3Z"/>
  <path class="cls-7" d="M216.05,317.98l2.99-1v2c-1.1-.29-2.41-.87-2.99-1Z"/>
  <path class="cls-8" d="M249.02,604.7h3s-1,3-1,3c-.32-.73-1.5-1.55-2-3Z"/>
  <path class="cls-13" d="M355.92,178.12c-.04.66.02,1.33,0,2l-2-.51v-1.48s2,0,2,0Z"/>
  <path class="cls-6" d="M135.13,244.05h2s-2,3-2,3c.1-.98-.11-2.02,0-3Z"/>
  <path class="cls-1" d="M246.02,478.82c0-.09-.71-.43-.7-1.22,0-.35.7-.6.7-.78l.99.51-.99,1.49Z"/>
  <path class="cls-10" d="M346.93,593.71c-.36,1.48-.97,1.89-1,2l-.99-1.99h1.99Z"/>
  <path class="cls-13" d="M369.9,130.16c-.08.08-.2,1.14-1,2l-1-1.99h2Z"/>
  <path class="cls-7" d="M244.03,373.93h2s0,2,0,2c-.04-.14-1.68-.59-2-2Z"/>
  <path class="cls-10" d="M343.93,602.7c.67.54.07.75,0,1l-2.01-.5,2.01-.5Z"/>
  <path class="cls-5" d="M260.01,619.69c1.74-.3,2.31.25,2,2-.91-.78-1.34-1.37-2-2Z"/>
  <path class="cls-13" d="M397.88,117.18c-.1.48-.53.93-1,1v-2s1,1,1,1Z"/>
  <path class="cls-2" d="M246.02,118.18l1,.99h-2c.05-.45.53-.88,1-.99Z"/>
  <path class="cls-2" d="M245.03,123.17l1,.99h-2c.1-.76.99-.92,1-.99Z"/>
  <path class="cls-13" d="M355.92,183.11c0,.33,0,.67,0,1l-2.01-.5,2.01-.5Z"/>
  <path class="cls-5" d="M430.84,318.98l1-2c-.13.09.5,1.55-1,2Z"/>
  <path class="cls-11" d="M172.1,319.98v-1.49s1-.51,1-.51c-.15.12.52,1.61-1,2Z"/>
  <path class="cls-5" d="M427.85,318.98c-.07.02-.29.95-1,1v-2s1,1,1,1Z"/>
  <path class="cls-7" d="M243.03,348.95h2s-1,1-1,1c0-.07-.89-.23-1-1Z"/>
  <path class="cls-3" d="M353.92,479.82c.01.33,0,.67,0,1l-2.01-.5,2.01-.5Z"/>
  <path class="cls-10" d="M350.92,576.73c-.3,1.14-1.04,1.08-2,1l2-1Z"/>
  <path class="cls-5" d="M276,630.68c-.74-.18-.93-.98-1-1l.99-1v2Z"/>
  <path class="cls-7" d="M239.53,330.97c.65.33.65.67,0,1v-1Z"/>
  <path class="cls-12" d="M579.13,17.88c7.16,7.28,14.18,15.28,17.12,25.33,8.71,29.79.13,54.46-12.8,80.18-17.76,35.33-49.72,73.16-81.69,97.1-30.04,22.5-67.72,38.9-92.87,66.97-24.75,27.62-26.65,45.25-14.1,80.05,5.46,15.15,15.42,29.66,27.09,41.88,33.61,35.18,82.83,43.21,119.92,74.89,10.37,8.86,15.29,18.38,23.53,27.45.93,1.03,2.79.63,3.46,1.73,30.37,49.8,35.71,135.31-26.65,163-28.46,12.63-62.87,1.72-88.93-12.68-18.55-10.24-34.55-32.34-43.77-51.14-9.49-19.33-16.9-41.07-23.25-61.67-6.69-21.7-12.28-40.58-22.23-61.69-8.15-17.3-15.27-26-25.8-41.13-15.97-22.93-30.35-50.54-62.6-50.28-19.52.16-43.89,10.89-55.3,27.63-14.04,20.59-17.76,44.76-24.87,68.04-3.62,11.84-7.28,21.43-10.23,33.5-.13.55-4.59,7.36-5.31,8.93-18.76,41.09-44.08,96.21-96.12,99.65-6.63.44-28.23-1.89-33.67-5.01-47.19-27.06-59.92-68.99-42.77-120.38,18.93-56.7,92.28-94.3,138.2-128.53,25.41-18.94,45.65-35.22,39.36-70.97-5.49-31.22-55.97-81.79-84.92-93.9-11.69-4.9-22.4-9.01-33.73-15.23C20.79,176.7-13.13,113.68,7.54,62.94,23.92,22.71,68.92-7.23,111.43,14.52c49.83,25.49,73.7,81.76,96.68,129.1,15.24,31.41,35.39,75.35,61.41,98.43,40.2,35.66,65.72-12.24,86.02-40.9,15.61-22.04,24.64-42.49,37.12-65.78,27.25-50.83,59.33-116.16,120.93-131.82,26.03-6.62,46.43-5.12,65.54,14.33Z"/>
</svg>