<svg width="120" height="25" viewBox="0 0 120 25" fill="none" xmlns="http://www.w3.org/2000/svg">
<g clip-path="url(#clip0_21_543)">
<path d="M6.81939 0.621639C6.93315 0.25216 7.27503 0 7.6622 0H27.4042C27.9972 0 28.4213 0.572947 28.2471 1.13899L26.9019 5.47013C26.7881 5.83963 26.4464 6.09179 26.059 6.09179H6.31715C5.72401 6.09179 5.30005 5.51882 5.47434 4.95278L6.81939 0.621639Z" fill="#B0A52E"/>
<path d="M31.4191 0.528187C31.4191 0.387339 31.4661 0.269962 31.5602 0.176063C31.6778 0.0586877 31.8071 0 31.9483 0H46.162C46.3029 0 46.4205 0.0586877 46.5146 0.176063C46.6322 0.269962 46.691 0.387339 46.691 0.528187V5.5636C46.691 5.70444 46.6322 5.83355 46.5146 5.95092C46.4205 6.04482 46.3029 6.09179 46.162 6.09179H38.0498C37.9089 6.09179 37.7795 6.15047 37.6619 6.26784C37.5679 6.36174 37.5208 6.47911 37.5208 6.61997V8.73272C37.5208 8.87359 37.5679 9.00268 37.6619 9.12007C37.7795 9.21397 37.9089 9.26091 38.0498 9.26091H44.2927C44.4338 9.26091 44.5514 9.3196 44.6455 9.43696C44.7628 9.53087 44.8216 9.65998 44.8216 9.82431V14.8245C44.8216 14.9888 44.7628 15.1297 44.6455 15.247C44.5514 15.341 44.4338 15.3879 44.2927 15.3879H38.0498C37.9089 15.3879 37.7795 15.4466 37.6619 15.564C37.5679 15.6579 37.5208 15.7752 37.5208 15.9161V24.1206C37.5208 24.2616 37.462 24.3906 37.3444 24.5081C37.2503 24.602 37.133 24.6488 36.9919 24.6488H31.9483C31.8071 24.6488 31.6778 24.602 31.5602 24.5081C31.4661 24.3906 31.4191 24.2616 31.4191 24.1206V0.528187Z" fill="#B0A52E"/>
<path d="M47.8142 0.528187C47.8142 0.387339 47.8612 0.269962 47.9553 0.176063C48.0729 0.0586877 48.2023 0 48.3434 0H53.3868C53.5279 0 53.6455 0.0586877 53.7396 0.176063C53.8572 0.269962 53.916 0.387339 53.916 0.528187V24.1206C53.916 24.2616 53.8572 24.3906 53.7396 24.5081C53.6455 24.602 53.5279 24.6488 53.3868 24.6488H48.3434C48.2023 24.6488 48.0729 24.602 47.9553 24.5081C47.8612 24.3906 47.8142 24.2616 47.8142 24.1206V0.528187Z" fill="#B0A52E"/>
<path d="M56.0806 0.528187C56.0806 0.387339 56.1276 0.269962 56.2217 0.176063C56.3393 0.0586877 56.4686 0 56.6098 0H61.7942C62.0765 0 62.2529 0.129113 62.3234 0.387339L64.5101 9.01442C64.5571 9.22569 64.6982 9.30787 64.9334 9.26091C65.1449 9.23744 65.2507 9.12007 65.2507 8.90878V0.528187C65.2507 0.387339 65.2978 0.269962 65.3918 0.176063C65.5094 0.0586877 65.6388 0 65.7799 0H70.8233C70.9644 0 71.082 0.0586877 71.1761 0.176063C71.2937 0.269962 71.3525 0.387339 71.3525 0.528187V24.1206C71.3525 24.2616 71.2937 24.3906 71.1761 24.5081C71.082 24.602 70.9644 24.6488 70.8233 24.6488H65.6388C65.3566 24.6488 65.1802 24.5196 65.1096 24.2616L62.923 15.6344C62.8759 15.4231 62.7348 15.341 62.4998 15.3879C62.2882 15.4114 62.1823 15.5288 62.1823 15.74V24.1206C62.1823 24.2616 62.1235 24.3906 62.0059 24.5081C61.9118 24.602 61.7942 24.6488 61.6534 24.6488H56.6098C56.4686 24.6488 56.3393 24.602 56.2217 24.5081C56.1276 24.3906 56.0806 24.2616 56.0806 24.1206V0.528187Z" fill="#B0A52E"/>
<path d="M73.4744 0.528187C73.4744 0.387339 73.5214 0.269962 73.6155 0.176063C73.7331 0.0586877 73.8624 0 74.0036 0H88.2173C88.3582 0 88.4758 0.0586877 88.5699 0.176063C88.6875 0.269962 88.7463 0.387339 88.7463 0.528187V5.5636C88.7463 5.70444 88.6875 5.83355 88.5699 5.95092C88.4758 6.04482 88.3582 6.09179 88.2173 6.09179H80.1404C79.976 6.09179 79.8348 6.15047 79.7172 6.26784C79.6232 6.36174 79.5761 6.47911 79.5761 6.61997V8.73272C79.5761 8.87359 79.6232 9.00268 79.7172 9.12007C79.8348 9.21397 79.976 9.26091 80.1404 9.26091H86.348C86.4891 9.26091 86.6067 9.3196 86.7005 9.43696C86.8181 9.53087 86.8769 9.65998 86.8769 9.82431V14.8245C86.8769 14.9888 86.8181 15.1297 86.7005 15.247C86.6067 15.341 86.4891 15.3879 86.348 15.3879H80.1404C79.976 15.3879 79.8348 15.4466 79.7172 15.564C79.6232 15.6579 79.5761 15.7752 79.5761 15.9161V17.9936C79.5761 18.158 79.6232 18.2988 79.7172 18.4162C79.8348 18.5101 79.976 18.557 80.1404 18.557H88.2173C88.3582 18.557 88.4758 18.6157 88.5699 18.7331C88.6875 18.827 88.7463 18.9444 88.7463 19.0852V24.1206C88.7463 24.2616 88.6875 24.3906 88.5699 24.5081C88.4758 24.602 88.3582 24.6488 88.2173 24.6488H74.0036C73.8624 24.6488 73.7331 24.602 73.6155 24.5081C73.5214 24.3906 73.4744 24.2616 73.4744 24.1206V0.528187Z" fill="#B0A52E"/>
<path d="M93.6653 12.5005C93.7124 12.3831 93.7124 12.2657 93.6653 12.1484L89.574 0.704254C89.5035 0.539927 89.5152 0.387339 89.6093 0.246488C89.7267 0.0821631 89.8798 0 90.0677 0H95.2877C95.4288 0 95.5464 0.0469503 95.6405 0.140851C95.7581 0.234751 95.8169 0.352126 95.8169 0.492976L96.5223 8.90878C96.5458 9.14354 96.6869 9.26091 96.9454 9.26091C97.2041 9.26091 97.3452 9.14354 97.3688 8.90878L98.0741 0.492976C98.0976 0.352126 98.1564 0.234751 98.2505 0.140851C98.3681 0.0469503 98.4972 0 98.6384 0H103.823C104.011 0 104.164 0.0821631 104.281 0.246488C104.376 0.387339 104.399 0.539927 104.352 0.704254L100.261 12.1484C100.214 12.2657 100.214 12.3831 100.261 12.5005L104.352 23.9446C104.399 24.1088 104.364 24.2731 104.246 24.4374C104.152 24.5784 104.011 24.6488 103.823 24.6488H98.6384C98.4972 24.6488 98.3681 24.602 98.2505 24.5081C98.1564 24.4141 98.1094 24.2967 98.1094 24.1559L97.3688 15.74C97.3688 15.5053 97.2276 15.3879 96.9454 15.3879C96.6869 15.3879 96.5576 15.5053 96.5576 15.74L95.8169 24.1559C95.8169 24.2967 95.7581 24.4141 95.6405 24.5081C95.5464 24.602 95.4288 24.6488 95.2877 24.6488H90.0677C89.8798 24.6488 89.7387 24.5784 89.6446 24.4374C89.527 24.2731 89.5035 24.1088 89.574 23.9446L93.6653 12.5005Z" fill="#B0A52E"/>
<path d="M112.84 6.47911C112.817 6.2209 112.664 6.09179 112.382 6.09179C112.123 6.09179 111.994 6.2209 111.994 6.47911L111.465 14.7893C111.441 14.9536 111.488 15.0945 111.606 15.2118C111.723 15.3292 111.853 15.3879 111.994 15.3879H112.84C112.981 15.3879 113.099 15.3292 113.193 15.2118C113.311 15.0945 113.369 14.9536 113.369 14.7893L112.84 6.47911ZM120 24.0502C120 24.2145 119.953 24.3553 119.859 24.4727C119.741 24.5902 119.612 24.6488 119.471 24.6488H114.498C114.357 24.6488 114.228 24.602 114.11 24.5081C114.016 24.4141 113.969 24.2967 113.969 24.1559L113.828 21.9727C113.828 21.8318 113.769 21.7144 113.652 21.6205C113.558 21.5266 113.44 21.4797 113.299 21.4797H111.535C111.394 21.4797 111.265 21.5266 111.147 21.6205C111.053 21.7144 111.006 21.8318 111.006 21.9727L110.865 24.1559C110.865 24.2967 110.806 24.4141 110.689 24.5081C110.595 24.602 110.477 24.6488 110.336 24.6488H105.363C105.199 24.6488 105.069 24.5902 104.975 24.4727C104.881 24.3553 104.834 24.2145 104.834 24.0502L107.444 0.492976C107.491 0.164325 107.679 0 108.008 0H116.826C116.967 0 117.085 0.0469503 117.178 0.140851C117.296 0.234751 117.355 0.352126 117.355 0.492976L120 24.0502Z" fill="#B0A52E"/>
<path d="M4.12922 9.95269C4.24298 9.58321 4.58486 9.33105 4.97203 9.33105H20.3946C20.9878 9.33105 21.4118 9.90399 21.2375 10.47L19.8924 14.8012C19.7786 15.1707 19.4368 15.4228 19.0496 15.4228H3.62697C3.03381 15.4228 2.60985 14.8499 2.78416 14.2838L4.12922 9.95269Z" fill="#B0A52E"/>
<path d="M1.38459 19.2723C1.49836 18.9028 1.84023 18.6506 2.2274 18.6506H9.86184C10.455 18.6506 10.879 19.2236 10.7047 19.7896L9.35962 24.1207C9.24583 24.4902 8.90398 24.7424 8.51678 24.7424H0.882345C0.289198 24.7424 -0.134768 24.1695 0.039526 23.6034L1.38459 19.2723Z" fill="#B0A52E"/>
</g>
<defs>
<clipPath id="clip0_21_543">
<rect width="119.905" height="24.7423" fill="white"/>
</clipPath>
</defs>
</svg>
