<?xml version="1.0" encoding="UTF-8"?>
<svg id="Layer_1" data-name="Layer 1" xmlns="http://www.w3.org/2000/svg" viewBox="0 0 695.16 598.74">
  <defs>
    <style>
      .cls-1 {
        fill: #b0bdc5;
      }
    </style>
  </defs>
  <path class="cls-1" d="M26.02,451.67c31.8-31.2,98.22-23.29,138.97-22.29,14.48.36,27.09-1.18,41.88,1.07,13.95,2.13,27.67,7.65,41.39,10.56,19.46,4.13,43.85,7.54,63.58,8.35,44.69,1.82,88.67-3.74,132.9-8.04,36.45-3.55,71.65-13.09,106.92-16.96,49.53-5.44,92.6,12.99,124.34,50.47,24.33,28.72,15.76,75.67-14.43,96.4-25.26,17.34-44.57,20.4-74.9,21-60.75,1.21-119.96-35.38-183.91-32.06-32.74,1.7-55.39,13.39-85.94,20.96-21.1,5.23-43.42,7.47-64.87,10.06-59.24,7.15-107.21,13.23-166.38-1.47-24.75-6.15-41.53-13.51-61.82-29.09-36.12-27.73-27.55-79.71,2.26-108.96Z"/>
  <path class="cls-1" d="M21.09,328.02c-24.04-22.75-15.68-56.5,6.03-77.55,15.76-15.29,66.01-30.39,88.24-33.65,34.59-5.07,64.77,3.18,98.64,6.71,5.41.56,11.53-.53,16.96.02,31.18,3.17,63.53,8.61,94.88,10.02,32.41,1.46,64.66-3.26,96.84-5.94,40.67-3.39,79.4-11.41,121.03-11.12,32.25.22,71.4,2.28,100.7,17.18,15.05,7.66,27.88,12.73,39.03,26.9s13.82,24.43,10.08,42.88c-4.86,23.98-16.67,35.88-37.8,47.11-41.29,21.95-68.51,10.08-110.13,3.91-24.65-3.66-51-3.9-75.89-5.03-28.62-1.3-58.02-4.22-86.6.23-52.56,8.18-99.68,23.98-154.12,25.14-33.27.71-75.75-1.22-108.88-4.44-35.72-3.47-72.69-17.47-98.99-42.37Z"/>
  <path class="cls-1" d="M681.68,33.05c17.1,22.94,14.12,61.28-1.82,83.92-16.52,23.47-41.38,34.84-69.43,38.25-38.38,4.67-65.94,3.26-103.67-5.67-6.01-1.42-12.15-4.33-18.49-5.49-19.52-3.56-43.32-1.04-63.48-2.46s-40.81-5.98-60.96-7.98c-46.52-4.6-91.85-4.83-137.87,3.98-67.05.22-150.13,19.78-205.3-30.45C-.61,87.79.49,49.02,22.15,30.7c13.29-11.24,51.54-22.9,69.27-26.64,48.18-10.17,96.2,1.71,144.59,3.64,84.95,3.4,167.72,3.56,252.75-.92,26.78-1.41,53.96-5.23,80.84-6.08,21.88-.69,43.43,4.8,64.97,7.05,17.23,1.79,36.66,11.25,47.12,25.29Z"/>
</svg>