<?xml version="1.0" encoding="UTF-8"?>
<svg id="Layer_1" data-name="Layer 1" xmlns="http://www.w3.org/2000/svg" viewBox="0 0 727.24 737.85">
  <defs>
    <style>
      .cls-1 {
        fill: #b0bdc5;
      }

      .cls-2 {
        fill: #b0bcc4;
      }
    </style>
  </defs>
  <path class="cls-2" d="M665.2,67.38c31.42,27.78,47.11,65.76,49.31,107.04,1.69,31.67,5.02,64.29,4.99,95.92s-4.54,67.98-1,100.89c5.76,53.48,11.79,104.67,6.98,158.85-5.64,63.62-38.16,117.19-87.44,156.32-31.92,25.35-52.95,28.6-91.59,37.29-20.24,4.55-37.87,9.58-59.19,10.74-39.96,2.18-81.12,2.78-120.88,3-41.56.23-87.65,1.23-128.95-1.01-18.36-.99-38.04-6.99-56.19-10.74-71.35-14.75-129.46-41.38-162.6-110.14-20.46-42.45-13.3-104.85-13.4-151.44-.09-40.25-3.55-80.5-4.08-120.88-.79-60.65-5.17-121.47,10.49-181.32,10.54-40.29,52.69-101.12,89.6-121.19C151.81,13.2,224.27,3.34,281.44.11c17.03-.96,34.99,4.79,51.89,5.02,12.39.17,24.02-3.34,35.96-4.08,21.64-1.34,44.3,1.86,65.94,2,39.59.26,79.81,2.23,118.68,9.29,19.57,3.55,25.67,8.34,42.35,16.59,20.55,10.15,52.13,23.59,68.94,38.46ZM600.28,120.33c-7.79-7.18-23.72-9.92-34.08-10.37-24.06-1.04-43.6,26.23-38.21,49.2,9.66,41.2,75.32,41.53,85.58-.76-1.42-12.77-3.27-28.83-13.29-38.07ZM316.69,177.22c-25.88,2.78-83.6,39-105.2,55.65-45.44,35.02-60.6,86.59-63.48,142.32-1.55,30.08,10.56,85.74,26.6,111.34,25.13,40.11,80.59,82.53,127.06,92.72,72.22,15.85,116.17,6.67,177.36-31.89,22.1-13.93,42.03-39.9,55.44-62.44,21.26-35.72,24.5-97.96,22.21-138.71-1.5-26.67-10.82-31.39-19.51-53.42-6.39-16.21-8.15-29.76-19.99-43.95-45.17-54.17-131.85-78.99-200.52-71.62Z"/>
  <path class="cls-1" d="M446.42,290.17c72.89,70.91,30.5,206.31-71.21,217.31-76.69,8.29-125.12-37.09-144.5-108-13.93-51,15.49-109.29,63.02-131.32,54.46-25.25,109.15-20.34,152.69,22.01Z"/>
</svg>