<?xml version="1.0" encoding="UTF-8"?>
<svg id="Layer_1" data-name="Layer 1" xmlns="http://www.w3.org/2000/svg" viewBox="0 0 744.46 698.13">
  <defs>
    <style>
      .cls-1 {
        fill: #b0bcc4;
      }

      .cls-2 {
        fill: #b0bdc4;
      }

      .cls-3 {
        fill: #afbcc4;
      }
    </style>
  </defs>
  <path class="cls-1" d="M668.82,241.67c43.75,44.04,57.8,83.35,60.35,145.91,1.15,28.23-2.09,55.88-4.14,83.84-2.45,33.46-1.6,64.73,6.39,97.7,6.25,25.78,14.92,41.82,12.68,70.2-3.28,41.52-40.56,61.8-79.38,58.43-14.33-1.24-29.82-8.49-44.09-9.85-10.29-.98-21.55.71-31.83-.14-19.46-1.61-53.75-17.81-60.4-37.49-12.31-36.36,3.77-62.17,12.86-95.93,11.51-42.74,17.2-124.12-12.39-160.25-17.5-21.36-51.66-22.29-72.91-5.96-33.8,25.98-44.32,61.28-36.72,102.6,9.98,54.26,71.61,123.91,23.18,176.54-18.31,19.9-69.62,24.76-95.36,23.49-20.32-1-46.6-1.18-65.39-8.52-32.62-12.76-36.14-38.07-34.05-69.92,1.04-15.77,2.28-30.99,3-46.95.94-21.03,4.31-39.12,4.08-60.93-.55-51.84-9.39-104.05-9.07-156.83.28-46.87,4.14-111.86,54.01-131.77,31.82-12.71,77.95-8.89,100.36,19.43,3.69,4.67,3.35,7.25,5.61,11.37,2.63,4.78,8.81,8.34,14.28,7.57,10.73-1.52,33.6-23.55,43.05-30.88,64.19-49.78,150.04-37.85,205.87,18.34Z"/>
  <path class="cls-3" d="M190.11,235.93c15.77,18.91,10.07,32.76,9.57,54.77-.63,27.53.53,54.68,2.03,81.96,1.23,22.42.91,46.7,3.02,68.9,2.96,31.13,13.09,64.35,15.01,95.87.87,14.36-1.99,28.96-1.08,43.03,2.48,38.41,10.69,78.31-29.55,100.23-24.99,13.61-45.62,16.93-73.83,17.06-31.55.14-56.42,1.55-82.38-20.42-55.65-47.09-26.27-127.6-15.26-188.09,12.25-67.3-6.65-143.79,7.76-209,11.1-50.25,38.81-57.46,85.97-56.95,15.89.17,33.42-.47,48.9.05,12.96.44,21.54,2.63,29.85,12.6Z"/>
  <path class="cls-2" d="M186.08,22.19c25.91,23.72,45.9,58.25,34.66,94.78-10.7,34.78-27.89,66.06-66.76,74.08-15.31,3.16-39.21,6.32-54.14,2.78-49.34-11.7-78.17-49.12-78.99-99.87-.2-12.63,14.86-47.83,23.07-57.92C56.36,20.74,88.8,1.91,108.33.57c30.42-2.08,54.99.78,77.75,21.62Z"/>
</svg>