<?xml version="1.0" encoding="UTF-8"?>
<svg id="Layer_1" data-name="Layer 1" xmlns="http://www.w3.org/2000/svg" viewBox="0 0 891.87 895.45">
  <defs>
    <style>
      .cls-1 {
        fill: #b0bdc5;
      }
    </style>
  </defs>
  <path class="cls-1" d="M502.47,339.11c5.41,7.22,10.77,14.6,12.44,24.02,3.15,17.75,1.09,38.69-14.54,50.16-11.19,8.21-31.7,10.18-44.49,4.87-18.9-7.85-31.94-27.16-50.33-34.59-9.93-4.01-34.68-9.37-44.64-6.83-1.83.47-17.61,9.31-20.06,10.91-15.49,10.12-22.52,22.96-30.8,39.13-7.93,15.5-10.82,30.35-8.89,48.19.47,4.34,4.19,10.69,1.55,15.39-.16.28-4.45,4.19-4.74,4.33-14.61,7.16-39.55.16-55.2-1.31-15.38-1.45-21.93-1.92-35.77,5.17-38.08,19.51-51.36,41.89-73.04,76.81-10.05,16.19-16.63,24.9-22.32,43.63-14.92,49.18-8.87,95.68,27.69,134.68,17.46,18.62,35.61,28.08,58.97,36.93,24.24,9.18,34.44,8.99,59.73,3.74,20.7-4.3,31.22-6.67,48.93-17.21,3.85-2.29,23.57-12,24.56-12.98,3.31-3.3,7.07-7.64,11.16-11.03,21.84-18.15,40.93-42.88,64.07-59.8,1.76-1.29,5.51-1.78,6.14-2.42,8.4-8.57,27.01-17.14,39.91-19.47,40.62-7.33,65.18,25.84,56.18,64-.21.87-1.74.72-2.25,1.96-9.91,23.82-18.81,38.42-39.21,54.67-7.77,6.19-15.77,9.81-23.34,15.63-10.02,7.7-18.21,11.54-29.19,17.76-21.91,12.42-42.99,26.59-64.94,37.96-12.2,6.33-24.46,13.25-37.42,18.48-61.21,24.72-121.48,13.5-179.29-16.35-48.82-25.21-103.45-82.54-120.12-135.63-25.65-81.68-13.68-136.87,32.43-206.86,10.3-15.64,23.67-25.74,35.42-39,3.59-4.05,7.23-11.5,10.79-15.69,23.89-28.16,58.13-50.92,83.44-78.36,30.74-33.33,53.78-59.5,94.24-82.63,42.24-24.14,69.93-25.93,118.08-22.8,45.64,2.96,86.91,17.29,114.8,54.54Z"/>
  <path class="cls-1" d="M825.37,66.15c30.25,29.42,63.61,97.89,66.28,140.02,1.08,17.03-2.13,30.7-3.03,46.9-1,18.21-.28,31.43-4.18,49.76-12.87,60.39-65.47,130.3-109.17,172.56-3.66,3.54-10.41,6.01-14,8.98-18.27,15.13-45.05,50.55-61.94,69.94-30.4,34.89-47.74,62.03-95.19,76.65-42.35,13.04-119.91-5.21-148.46-40.77-8.45-10.52-19.56-28.73-19.66-42.33-.21-28.43,30.65-45.3,56.44-42.4,16.7,1.88,28.42,8.86,41.45,18.49,25.41,18.75,38.76,38.41,74.28,31.15,7.04-1.44,23.62-17.59,28.14-23.81,16.89-23.23,14.23-50.1,21.41-76.49,4.01-14.72,19.15-38.62,29.45-49.97,32.01-35.29,64.05-65.04,86.71-107.6,21.3-40.01,27.97-55.12,19.56-101.77-3.89-21.59-8.13-35.97-21.27-53.66-8.61-11.59-17.63-15.3-27.88-24.07-6.47-5.54-11.37-12.36-18.6-17.36-24.36-16.86-51.85-20.97-79.07-8.33-39.75,18.47-55.58,42.86-83.13,74.71-16.99,19.64-51.17,67.02-76.24,72.6-24.41,5.43-56.23-4.96-65.44-29.9-16.39-44.36,11.22-73.2,40.23-102.2C521.2,48.15,572.94,8.93,659.41.88c66.16-6.16,120.01,20.57,165.97,65.27Z"/>
</svg>