<?xml version="1.0" encoding="UTF-8"?>
<svg id="Layer_1" data-name="Layer 1" xmlns="http://www.w3.org/2000/svg" viewBox="0 0 729.92 630.14">
  <defs>
    <style>
      .cls-1 {
        fill: #afbcc4;
      }
    </style>
  </defs>
  <path class="cls-1" d="M57.6,595.6c-16.84-15.05-35.89-44.7-43.39-65.97-16.1-45.62-.44-91.05-2.94-136.93-1.37-25.24-9.96-49.62-11.07-74.84-1.02-23.01,2.27-44.41,3.08-66.94,1.65-45.71-5.11-79.34,7.44-125.44C38.28,24.21,120.61,4.07,215.57,6.58c13.79.36,28.06,2.88,41.96,2.08,20.39-1.17,42.2-6.9,62.91-8.02,27.5-1.49,61.36-.19,88.89,2,17.53,1.39,35.66,6.06,52.92,7.02,26.14,1.46,52.44-3.69,78.95-2.03,17.01,1.07,33.33,6.82,50.08,8.86,31.1,3.79,49.44.65,76.62,20.28,38.21,27.6,32.65,50.98,40.92,91.95,5.44,27,13.46,48.36,14.75,77.16,1.96,43.53.06,88.4.02,131.94-.04,38.38,8.09,75.85,5.98,114.9-3.69,68.03-31.69,146.76-107.73,159.01-23.9,3.85-47.09.02-70.62,2.31-23.87,2.32-47.85,11.52-71.95,13.96-47.34,4.79-96.34-1.3-143.89-.03-12.66.34-25.2,2.63-37.96,2.08-27.48-1.18-54.36-10.42-81.84-11.07s-56.61,8.25-84.95,6.03c-22.17-1.74-56.38-14.55-73.02-29.41ZM521.35,174.08c23.44-22.2,46.44-39.29,73.77-56.59,3.5-2.21,23.37-12.63,24.07-13.94,1.04-1.94-1.4-3.43-2.56-4.52-6.73-6.3-19.6-9.99-28.61-11.34-58.81-8.84-116.25-1.9-174.74-5.09-20.07-1.09-39.63-7.05-59.89-6.03-9.82.5-20.3,3.35-29.99,3.98-29.39,1.9-63.4,3.03-92.75,1.85-37.13-1.5-104.21-8.94-131.03,24.13-3.62,4.47-4.75,5.13-1.01,10.02,14.29,18.69,59.86,49.87,80.52,65.33,48.82,36.54,99.78,70.65,148.24,107.51,9.53,7.25,29.36,27.43,41.16,27.63,6.61.11,17.64-8.55,22.77-12.7,17.89-14.45,39.39-34.32,56.06-50.36,25.71-24.75,46.87-54.21,73.96-79.87ZM165.66,259.8c-22.06-18.59-45.71-34.4-67.53-53.85-4.2-3.74-19.08-20.56-23.51-20.51-4.66.06-2.45,11.95-2.46,14.51-.02,41.62-.15,84.35,1.96,125.9,1.71,33.65,11.59,64.39,13.07,97.83,2.64,59.6-17.02,127.56,70.37,119.41,12.88-1.2,25.66-4.44,38.93-5,40.96-1.71,78.02,10.58,118.92,7,16.4-1.43,33.73-6.02,49.92-7.03,40.67-2.52,83.1,2.86,123.91.03,16.57-1.15,33.98-6.5,50.97-7.97,20.2-1.75,39.9.07,59.93.08,48.34.03,56.09-52.56,52.44-90.5-2.28-23.66-3.81-41.87-4.03-65.98-.26-28.45-3.88-57.1-3-85.92.41-13.34,3.29-28.71,3.08-41.87-.21-12.86-3.73-33.71-6.5-46.54-2.14-9.9-4.81-26-17.99-15.92-10.69,8.17-22.51,26.15-33.48,36.45-12.84,12.05-28.09,20.7-40.99,31.94-16.63,14.5-28.35,33.62-43.92,48.99-6.77,6.68-14.97,11.66-22.02,17.94-18.71,16.67-31.09,32.99-52.6,48.3-51.94,36.96-83.81,33.34-135.13-2.39-18.21-12.68-37.1-25.73-54.93-38.98-26.93-20.02-49.89-44.41-75.43-65.93Z"/>
</svg>