<svg width="603" height="143" viewBox="0 0 603 143" fill="none" xmlns="http://www.w3.org/2000/svg">
<g filter="url(#filter0_dd_928_74)">
<path d="M152.109 12C156.946 12.0001 160.746 15.8004 160.746 20.6367V45.6816C160.746 53.2816 170.073 57.2549 175.428 51.9004L213.428 14.418C215.155 12.8636 217.227 12.0001 219.473 12H235.214C240.05 12 243.851 15.8004 243.851 20.6367V74.873C243.851 91.8002 257.841 105.618 274.769 105.618C291.696 105.618 305.514 91.4545 305.514 74.5273V20.6367C305.514 15.8004 309.487 12 314.15 12H329.387C334.223 12.0001 338.022 15.8004 338.022 20.6367V94.0459C338.023 98.882 341.996 102.682 346.659 102.682H388.832V20.6367C388.832 15.8004 392.632 12 397.469 12H461.205C462.742 12 464.263 12.0746 465.765 12.2188H589.922C594.585 12.2188 598.558 16.0182 598.559 20.8545V32.6006C598.558 37.4367 594.585 41.2363 589.922 41.2363H561.768C556.931 41.2363 553.131 45.2094 553.131 49.873V123.455C553.131 128.291 549.158 132.091 544.495 132.091H532.576C527.74 132.091 523.941 128.291 523.94 123.455V49.873C523.94 45.2094 519.967 41.2363 515.304 41.2363H505.255C507.585 46.7694 508.878 52.8219 508.878 59.1543C508.705 85.2361 487.632 106.481 461.55 106.481H426.659C421.823 106.482 418.022 110.282 418.022 115.118V123.236C418.022 128.073 414.05 131.873 409.387 131.873H317.469C313.037 131.873 309.231 128.441 308.863 123.949C299.085 130.836 287.203 134.876 274.423 134.81C262.637 134.748 251.63 131.254 242.363 125.274C241.49 128.875 238.331 131.873 233.982 131.873H219.473C217.227 131.873 215.155 131.009 213.428 129.454L181.646 98.0186C178.191 94.7367 172.836 94.7369 169.382 98.1914L163.682 104.063C161.782 105.963 160.746 108.382 160.746 110.973V123.236C160.746 128.073 156.946 131.873 152.109 131.873H140.191C135.528 131.873 131.555 128.073 131.555 123.236V40.2275L122.609 40.2354C110.758 40.2524 115.654 40.2183 107.786 40.2354C97.7477 40.2572 84.0044 40.2179 69.6758 40.5625C56.9822 40.8678 44.2906 41.0422 43.4717 49.3945C42.9804 55.7816 45.7647 55.2908 69.3477 57.9111V58.0742C91.9482 58.8931 105.706 63.4792 113.73 72.6504C119.135 78.8737 121.591 87.0625 120.608 96.8887C118.152 121.127 94.7328 131.444 70.8223 131.444C68.8571 131.444 66.7279 131.444 64.7627 131.28C42.2883 131.28 33.1536 130.765 21.7666 130.547C16.2798 130.442 11.8936 126.004 12.002 120.518C12.05 118.086 12.1014 115.489 12.1494 113.057C12.2577 107.572 16.7697 103.128 22.2559 103.128H68.9561C80.8785 101.638 89.3233 102.631 92.9307 94.1045C92.9307 88.8638 90.9657 88.2082 67.2188 85.5879C44.6185 84.6053 30.8618 80.1838 22.8369 71.0127C17.2687 64.6256 14.9754 56.4367 15.958 46.6104C18.5784 20.2432 45.6902 12.2189 71.6406 12.2188C102.359 12.2186 118.059 12.2189 138.281 12.2188C138.898 12.0772 139.538 12 140.191 12H152.109ZM201.337 65.8906C198.055 69.1724 198.055 74.6996 201.337 77.9814L218.41 95.2832C216.096 88.9125 214.832 82.0396 214.832 74.873V52.2139L201.337 65.8906ZM425.73 41.0674C421.345 41.5371 418.023 45.2938 418.022 49.6543V68.6543C418.022 73.3179 421.823 77.2909 426.659 77.291H461.378C471.396 77.2908 479.514 69.3452 479.687 59.3271C479.686 50.2581 473.034 42.605 464.341 41.2363H427.465C426.869 41.2363 426.289 41.1775 425.73 41.0674Z" fill="url(#paint0_linear_928_74)"/>
</g>
<defs>
<filter id="filter0_dd_928_74" x="0" y="0" width="602.559" height="142.811" filterUnits="userSpaceOnUse" color-interpolation-filters="sRGB">
<feFlood flood-opacity="0" result="BackgroundImageFix"/>
<feColorMatrix in="SourceAlpha" type="matrix" values="0 0 0 0 0 0 0 0 0 0 0 0 0 0 0 0 0 0 127 0" result="hardAlpha"/>
<feOffset dy="4"/>
<feGaussianBlur stdDeviation="2"/>
<feComposite in2="hardAlpha" operator="out"/>
<feColorMatrix type="matrix" values="0 0 0 0 0.823529 0 0 0 0 0.839216 0 0 0 0 0.85098 0 0 0 1 0"/>
<feBlend mode="normal" in2="BackgroundImageFix" result="effect1_dropShadow_928_74"/>
<feColorMatrix in="SourceAlpha" type="matrix" values="0 0 0 0 0 0 0 0 0 0 0 0 0 0 0 0 0 0 127 0" result="hardAlpha"/>
<feOffset dx="-4" dy="-4"/>
<feGaussianBlur stdDeviation="4"/>
<feComposite in2="hardAlpha" operator="out"/>
<feColorMatrix type="matrix" values="0 0 0 0 1 0 0 0 0 1 0 0 0 0 1 0 0 0 0.5 0"/>
<feBlend mode="normal" in2="effect1_dropShadow_928_74" result="effect2_dropShadow_928_74"/>
<feBlend mode="normal" in="SourceGraphic" in2="effect2_dropShadow_928_74" result="shape"/>
</filter>
<linearGradient id="paint0_linear_928_74" x1="11.8281" y1="71.8314" x2="143.328" y2="71.8314" gradientUnits="userSpaceOnUse">
<stop offset="1" stop-color="#ECF1F3"/>
<stop offset="1" stop-color="#ECF1F3"/>
</linearGradient>
</defs>
</svg>
