<?xml version="1.0" encoding="UTF-8"?>
<svg id="Layer_2" data-name="Layer 2" xmlns="http://www.w3.org/2000/svg" viewBox="0 0 20.51 21.75">
  <defs>
    <style>
      .cls-1 {
        fill: #afbcc4;
      }
    </style>
  </defs>
  <g id="Layer_1-2" data-name="Layer 1">
    <path class="cls-1" d="M11.73.41c1.87-1.55,3.85,1.66,5.21,2.93,1.14,1.02,2.79,1.57,3.44,3.04.54,1.16-.6,2.26-2.07,2.01-.61-.07-1.38-.29-1.91-.25-1.71.24-1.3,2.11-1.41,3.75-.03,2.15-.11,4.38-1.17,6.28-4.35,7.39-17.04,2.32-13.05-6.12.78-2.26,7.08-6.25,7.53-2.37,0,.03-.08,1.02-.08,1.05-.35,2.04-3.34,2.03-3.72,4.08-.44,2.65,3.41,4.03,5.09,2.15.88-.9,1.12-2.26,1.19-3.5.11-3.22.02-6.76.06-10.1.03-1,.11-2.16.8-2.88l.09-.09Z"/>
  </g>
</svg>