<?xml version="1.0" encoding="UTF-8"?>
<svg id="Layer_1" data-name="Layer 1" xmlns="http://www.w3.org/2000/svg" viewBox="0 0 628.09 523.21">
  <defs>
    <style>
      .cls-1 {
        fill: #afbcc4;
      }
    </style>
  </defs>
  <path class="cls-1" d="M610.23,35.48c23.17,23.57,24.58,55.33-.43,77.97-16.85,15.25-33.91,22.81-56.53,25.47-86.91,10.24-181.11,3.2-267.98-4.99-29.16-2.75-72.57-8.42-100.88-4.87-45.56,5.71-81.62,18.8-128.66,5.4C-2.88,117.76-20.85,36.72,42.77,15.41,89.97-.4,158.74,6.94,209.33,6.89c36.39-.04,72.58-.36,108.92.08,70.89.87,141.02-10.81,211.86-5.65,30.36,2.21,58.46,12.12,80.12,34.16Z"/>
  <path class="cls-1" d="M107.46,208.3c51.79-1.28,100.48,5.16,151.79,6.67,36.79,1.08,78.86-3.08,114.79,4.21,42.26,8.57,55,60,21.67,86.16-26.1,20.48-54.21,16.69-84.3,21.7-35.79,5.96-67.22,11.29-104.16,9.92-25.24-.94-47.24-6.1-72.92-6-40.68.16-86.11,2.51-119.01-25.07-7.73-6.48-11.38-12.77-13.26-22.74-5.39-28.73-1.42-52.19,26.41-66.05,17.97-8.95,57.93-8.29,78.98-8.81Z"/>
  <path class="cls-1" d="M142.59,404.23c29.61-.17,61.45-.87,90.2,7.21,28.81,8.09,34.6,41.52,28.51,67.51-10.4,44.41-72.56,45.1-109.05,44.03-32.82-.96-106.46-7.31-131.93-28.07-16.94-13.79-16.28-51.6-2.55-67.5,24.71-28.59,89.59-22.98,124.82-23.18Z"/>
</svg>