<?xml version="1.0" encoding="UTF-8"?>
<svg id="Layer_2" data-name="Layer 2" xmlns="http://www.w3.org/2000/svg" viewBox="0 0 18.32 18.6">
  <defs>
    <style>
      .cls-1 {
        fill: #afbcc4;
      }
    </style>
  </defs>
  <g id="Layer_1-2" data-name="Layer 1">
    <path class="cls-1" d="M17.97,14.75C16.95,6.1,21.96-.62,11.77.04c-1.57.05-2.46.25-3.85.23C5.91.25,2.05-.27.9.85,0,1.74.54,2.81.39,4.49c.21,2.88-2.02,14.16,2.29,14.06,3.21.06,8.52.01,12.08.03,2.34.18,3.44-1.11,3.21-3.6v-.22ZM8.85,16.83c-2.06-.17-6.71.93-6.94-1.14-.03-.28-.03-.59-.04-.89.05-3.15.08-6.87-.04-10.14,0-3.01-.01-2.66,3-2.66,3.08.07,6.15.04,9.21,0,2.4.05,2.25-.18,2.32,2.25.01,3.02-.14,5.81,0,8.86.08,3.41.53,3.34-2.6,3.45-1.47.06-3.58.28-4.92.28h0Z"/>
  </g>
</svg>